<!-- <svg width="164" height="50" viewBox="0 0 164 50" fill="none" xmlns="http://www.w3.org/2000/svg">
<path d="M78.55 16.45V28.4C78.55 30.25 78.025 31.675 76.975 32.675C75.9417 33.675 74.5417 34.175 72.775 34.175C70.925 34.175 69.4417 33.65 68.325 32.6C67.2083 31.55 66.65 30.0583 66.65 28.125H70.9C70.9 28.8583 71.05 29.4167 71.35 29.8C71.65 30.1667 72.0833 30.35 72.65 30.35C73.1667 30.35 73.5667 30.1833 73.85 29.85C74.1333 29.5167 74.275 29.0333 74.275 28.4V16.45H78.55ZM90.8531 34.2C89.4865 34.2 88.2531 33.9083 87.1531 33.325C86.0698 32.7417 85.2115 31.9083 84.5781 30.825C83.9615 29.7417 83.6531 28.475 83.6531 27.025C83.6531 25.5917 83.9698 24.3333 84.6031 23.25C85.2365 22.15 86.1031 21.3083 87.2031 20.725C88.3031 20.1417 89.5365 19.85 90.9031 19.85C92.2698 19.85 93.5031 20.1417 94.6031 20.725C95.7031 21.3083 96.5698 22.15 97.2031 23.25C97.8365 24.3333 98.1531 25.5917 98.1531 27.025C98.1531 28.4583 97.8281 29.725 97.1781 30.825C96.5448 31.9083 95.6698 32.7417 94.5531 33.325C93.4531 33.9083 92.2198 34.2 90.8531 34.2ZM90.8531 30.5C91.6698 30.5 92.3615 30.2 92.9281 29.6C93.5115 29 93.8031 28.1417 93.8031 27.025C93.8031 25.9083 93.5198 25.05 92.9531 24.45C92.4031 23.85 91.7198 23.55 90.9031 23.55C90.0698 23.55 89.3781 23.85 88.8281 24.45C88.2781 25.0333 88.0031 25.8917 88.0031 27.025C88.0031 28.1417 88.2698 29 88.8031 29.6C89.3531 30.2 90.0365 30.5 90.8531 30.5ZM107.196 22.025C107.596 21.375 108.171 20.85 108.921 20.45C109.671 20.05 110.529 19.85 111.496 19.85C112.646 19.85 113.688 20.1417 114.621 20.725C115.554 21.3083 116.288 22.1417 116.821 23.225C117.371 24.3083 117.646 25.5667 117.646 27C117.646 28.4333 117.371 29.7 116.821 30.8C116.288 31.8833 115.554 32.725 114.621 33.325C113.688 33.9083 112.646 34.2 111.496 34.2C110.513 34.2 109.654 34.0083 108.921 33.625C108.188 33.225 107.613 32.7 107.196 32.05V34H102.921V15.5H107.196V22.025ZM113.296 27C113.296 25.9333 112.996 25.1 112.396 24.5C111.813 23.8833 111.088 23.575 110.221 23.575C109.371 23.575 108.646 23.8833 108.046 24.5C107.463 25.1167 107.171 25.9583 107.171 27.025C107.171 28.0917 107.463 28.9333 108.046 29.55C108.646 30.1667 109.371 30.475 110.221 30.475C111.071 30.475 111.796 30.1667 112.396 29.55C112.996 28.9167 113.296 28.0667 113.296 27ZM124.539 18.6C123.789 18.6 123.172 18.3833 122.689 17.95C122.222 17.5 121.989 16.95 121.989 16.3C121.989 15.6333 122.222 15.0833 122.689 14.65C123.172 14.2 123.789 13.975 124.539 13.975C125.272 13.975 125.872 14.2 126.339 14.65C126.822 15.0833 127.064 15.6333 127.064 16.3C127.064 16.95 126.822 17.5 126.339 17.95C125.872 18.3833 125.272 18.6 124.539 18.6ZM126.664 20.05V34H122.389V20.05H126.664ZM139.262 23.6H136.962V34H132.687V23.6H131.137V20.05H132.687V19.65C132.687 17.9333 133.179 16.6333 134.162 15.75C135.145 14.85 136.587 14.4 138.487 14.4C138.804 14.4 139.037 14.4083 139.187 14.425V18.05C138.37 18 137.795 18.1167 137.462 18.4C137.129 18.6833 136.962 19.1917 136.962 19.925V20.05H139.262V23.6ZM158.021 20.05L149.271 40.625H144.671L147.871 33.525L142.196 20.05H146.971L150.196 28.775L153.396 20.05H158.021Z" fill="#2CB1BC"/>
<rect width="50" height="50" rx="10" fill="#2CB1BC"/>
<path d="M26.0039 9.5625H31.8633V29.25C31.8633 31.0599 31.4596 32.6615 30.6523 34.0547C29.8581 35.4349 28.7318 36.5026 27.2734 37.2578C25.8151 38.013 24.168 38.3906 22.332 38.3906C19.3242 38.3906 16.9805 37.6289 15.3008 36.1055C13.6211 34.569 12.7812 32.401 12.7812 29.6016H18.6797C18.6797 30.9948 18.9727 32.0234 19.5586 32.6875C20.1445 33.3516 21.069 33.6836 22.332 33.6836C23.4518 33.6836 24.3438 33.2995 25.0078 32.5312C25.6719 31.763 26.0039 30.6693 26.0039 29.25V9.5625Z" fill="white"/>
</svg> -->

<svg width="164" height="100" viewBox="0 0 275 100" fill="none" xmlns="http://www.w3.org/2000/svg">
<rect width="275" height="100" fill="#2CB1BC"/>
<path d="M112.01 42.4545H115.476V52.5114C115.471 53.4536 115.246 54.2775 114.801 54.983C114.356 55.6837 113.741 56.2282 112.955 56.6165C112.173 57.0047 111.269 57.1989 110.241 57.1989C109.332 57.1989 108.506 57.0402 107.763 56.723C107.024 56.4058 106.435 55.9134 105.994 55.2457C105.559 54.5781 105.343 53.7235 105.348 52.6818H108.849C108.864 53.0559 108.935 53.3755 109.062 53.6406C109.195 53.901 109.377 54.0975 109.609 54.2301C109.841 54.3627 110.118 54.429 110.44 54.429C110.777 54.429 111.061 54.358 111.293 54.2159C111.525 54.0691 111.7 53.8537 111.818 53.5696C111.941 53.2855 112.005 52.9328 112.01 52.5114V42.4545ZM122.775 57.206C121.629 57.206 120.645 56.9716 119.821 56.5028C119.002 56.0294 118.369 55.3712 117.924 54.5284C117.484 53.6809 117.264 52.6984 117.264 51.581C117.264 50.4588 117.484 49.4763 117.924 48.6335C118.369 47.786 119.002 47.1278 119.821 46.6591C120.645 46.1856 121.629 45.9489 122.775 45.9489C123.921 45.9489 124.904 46.1856 125.723 46.6591C126.547 47.1278 127.179 47.786 127.619 48.6335C128.064 49.4763 128.287 50.4588 128.287 51.581C128.287 52.6984 128.064 53.6809 127.619 54.5284C127.179 55.3712 126.547 56.0294 125.723 56.5028C124.904 56.9716 123.921 57.206 122.775 57.206ZM122.797 54.5852C123.213 54.5852 123.566 54.4574 123.855 54.2017C124.144 53.946 124.364 53.5909 124.515 53.1364C124.672 52.6818 124.75 52.1562 124.75 51.5597C124.75 50.9536 124.672 50.4233 124.515 49.9688C124.364 49.5142 124.144 49.1591 123.855 48.9034C123.566 48.6477 123.213 48.5199 122.797 48.5199C122.366 48.5199 122.001 48.6477 121.703 48.9034C121.409 49.1591 121.184 49.5142 121.028 49.9688C120.877 50.4233 120.801 50.9536 120.801 51.5597C120.801 52.1562 120.877 52.6818 121.028 53.1364C121.184 53.5909 121.409 53.946 121.703 54.2017C122.001 54.4574 122.366 54.5852 122.797 54.5852ZM130.066 57V42.4545H133.539V47.9588H133.61C133.752 47.6274 133.953 47.3078 134.213 47C134.479 46.6922 134.815 46.4413 135.222 46.2472C135.634 46.0483 136.126 45.9489 136.699 45.9489C137.457 45.9489 138.165 46.1477 138.823 46.5455C139.486 46.9432 140.021 47.5563 140.428 48.3849C140.835 49.2135 141.039 50.2694 141.039 51.5526C141.039 52.7884 140.842 53.8229 140.449 54.6562C140.061 55.4896 139.535 56.1146 138.873 56.5312C138.214 56.9479 137.483 57.1562 136.678 57.1562C136.129 57.1562 135.653 57.0663 135.25 56.8864C134.848 56.7064 134.509 56.4697 134.235 56.1761C133.965 55.8826 133.757 55.5677 133.61 55.2315H133.503V57H130.066ZM133.468 51.5455C133.468 52.1326 133.546 52.6439 133.702 53.0795C133.863 53.5152 134.093 53.8537 134.391 54.0952C134.694 54.3319 135.056 54.4503 135.478 54.4503C135.904 54.4503 136.266 54.3319 136.564 54.0952C136.863 53.8537 137.087 53.5152 137.239 53.0795C137.395 52.6439 137.473 52.1326 137.473 51.5455C137.473 50.9583 137.395 50.4493 137.239 50.0185C137.087 49.5876 136.863 49.2538 136.564 49.017C136.271 48.7803 135.908 48.6619 135.478 48.6619C135.051 48.6619 134.689 48.7779 134.391 49.0099C134.093 49.242 133.863 49.5734 133.702 50.0043C133.546 50.4351 133.468 50.9489 133.468 51.5455ZM149.84 49.777V52.4545H143.107V49.777H149.84ZM152.292 42.4545H156.646L160.339 51.4602H160.51L164.203 42.4545H168.556V57H165.133V48.0653H165.012L161.518 56.9077H159.331L155.836 48.0156H155.716V57H152.292V42.4545ZM173.825 57.1847C173.129 57.1847 172.511 57.0687 171.971 56.8366C171.436 56.5999 171.012 56.2448 170.7 55.7713C170.392 55.2931 170.238 54.6941 170.238 53.9744C170.238 53.3684 170.344 52.857 170.558 52.4403C170.771 52.0237 171.064 51.6851 171.438 51.4247C171.812 51.1643 172.243 50.9678 172.731 50.8352C173.219 50.6979 173.739 50.6056 174.293 50.5582C174.914 50.5014 175.413 50.4422 175.792 50.3807C176.171 50.3144 176.445 50.2221 176.616 50.1037C176.791 49.9806 176.879 49.8078 176.879 49.5852V49.5497C176.879 49.1851 176.753 48.9034 176.502 48.7045C176.251 48.5057 175.913 48.4062 175.487 48.4062C175.027 48.4062 174.658 48.5057 174.379 48.7045C174.099 48.9034 173.922 49.178 173.846 49.5284L170.643 49.4148C170.737 48.7519 170.981 48.16 171.374 47.6392C171.772 47.1136 172.317 46.7017 173.008 46.4034C173.704 46.1004 174.54 45.9489 175.515 45.9489C176.211 45.9489 176.853 46.0317 177.44 46.1974C178.027 46.3584 178.538 46.5952 178.974 46.9077C179.409 47.2154 179.746 47.5942 179.982 48.044C180.224 48.4938 180.344 49.0076 180.344 49.5852V57H177.077V55.4801H176.992C176.798 55.8494 176.549 56.1619 176.246 56.4176C175.948 56.6733 175.595 56.8651 175.188 56.9929C174.786 57.1207 174.331 57.1847 173.825 57.1847ZM174.897 54.9119C175.271 54.9119 175.607 54.8362 175.906 54.6847C176.209 54.5331 176.45 54.3248 176.63 54.0597C176.81 53.7898 176.9 53.4773 176.9 53.1222V52.0852C176.8 52.1373 176.68 52.1847 176.538 52.2273C176.4 52.2699 176.249 52.3101 176.083 52.348C175.917 52.3859 175.747 52.419 175.572 52.4474C175.397 52.4759 175.228 52.5019 175.067 52.5256C174.741 52.5777 174.461 52.6581 174.229 52.767C174.002 52.8759 173.827 53.018 173.704 53.1932C173.585 53.3636 173.526 53.5672 173.526 53.804C173.526 54.1638 173.654 54.4384 173.91 54.6278C174.17 54.8172 174.499 54.9119 174.897 54.9119ZM185.941 50.7784V57H182.468V46.0909H185.771V48.0938H185.891C186.133 47.4261 186.545 46.9029 187.127 46.5241C187.71 46.1406 188.403 45.9489 189.208 45.9489C189.975 45.9489 190.64 46.1217 191.204 46.4673C191.772 46.8082 192.212 47.2865 192.525 47.902C192.842 48.5128 192.998 49.2277 192.994 50.0469V57H189.521V50.7287C189.525 50.1226 189.371 49.6491 189.059 49.3082C188.751 48.9673 188.323 48.7969 187.773 48.7969C187.409 48.7969 187.087 48.8774 186.808 49.0384C186.533 49.1946 186.32 49.4195 186.168 49.7131C186.022 50.0066 185.946 50.3617 185.941 50.7784ZM198.219 57.1847C197.523 57.1847 196.905 57.0687 196.365 56.8366C195.83 56.5999 195.407 56.2448 195.094 55.7713C194.786 55.2931 194.632 54.6941 194.632 53.9744C194.632 53.3684 194.739 52.857 194.952 52.4403C195.165 52.0237 195.459 51.6851 195.833 51.4247C196.207 51.1643 196.638 50.9678 197.125 50.8352C197.613 50.6979 198.134 50.6056 198.688 50.5582C199.308 50.5014 199.808 50.4422 200.186 50.3807C200.565 50.3144 200.84 50.2221 201.01 50.1037C201.185 49.9806 201.273 49.8078 201.273 49.5852V49.5497C201.273 49.1851 201.148 48.9034 200.897 48.7045C200.646 48.5057 200.307 48.4062 199.881 48.4062C199.422 48.4062 199.052 48.5057 198.773 48.7045C198.494 48.9034 198.316 49.178 198.24 49.5284L195.037 49.4148C195.132 48.7519 195.376 48.16 195.769 47.6392C196.167 47.1136 196.711 46.7017 197.402 46.4034C198.098 46.1004 198.934 45.9489 199.909 45.9489C200.605 45.9489 201.247 46.0317 201.834 46.1974C202.421 46.3584 202.933 46.5952 203.368 46.9077C203.804 47.2154 204.14 47.5942 204.377 48.044C204.618 48.4938 204.739 49.0076 204.739 49.5852V57H201.472V55.4801H201.387C201.193 55.8494 200.944 56.1619 200.641 56.4176C200.343 56.6733 199.99 56.8651 199.583 56.9929C199.18 57.1207 198.726 57.1847 198.219 57.1847ZM199.292 54.9119C199.666 54.9119 200.002 54.8362 200.3 54.6847C200.603 54.5331 200.845 54.3248 201.025 54.0597C201.204 53.7898 201.294 53.4773 201.294 53.1222V52.0852C201.195 52.1373 201.074 52.1847 200.932 52.2273C200.795 52.2699 200.643 52.3101 200.478 52.348C200.312 52.3859 200.141 52.419 199.966 52.4474C199.791 52.4759 199.623 52.5019 199.462 52.5256C199.135 52.5777 198.856 52.6581 198.624 52.767C198.397 52.8759 198.221 53.018 198.098 53.1932C197.98 53.3636 197.921 53.5672 197.921 53.804C197.921 54.1638 198.049 54.4384 198.304 54.6278C198.565 54.8172 198.894 54.9119 199.292 54.9119ZM211.948 61.3182C210.911 61.3182 210.023 61.1738 209.284 60.8849C208.546 60.5961 207.966 60.2008 207.544 59.6989C207.123 59.197 206.87 58.6288 206.784 57.9943L210.073 57.8097C210.134 58.0322 210.248 58.2263 210.414 58.392C210.584 58.5578 210.804 58.6856 211.074 58.7756C211.349 58.8655 211.671 58.9105 212.04 58.9105C212.623 58.9105 213.103 58.7685 213.482 58.4844C213.865 58.205 214.057 57.715 214.057 57.0142V55.0966H213.936C213.799 55.4328 213.591 55.7334 213.311 55.9986C213.032 56.2637 212.684 56.4721 212.267 56.6236C211.855 56.7751 211.382 56.8509 210.847 56.8509C210.051 56.8509 209.322 56.6662 208.659 56.2969C208.001 55.9228 207.473 55.3452 207.076 54.5639C206.683 53.7779 206.486 52.767 206.486 51.5312C206.486 50.2576 206.69 49.2088 207.097 48.3849C207.504 47.5563 208.037 46.9432 208.695 46.5455C209.358 46.1477 210.07 45.9489 210.833 45.9489C211.406 45.9489 211.896 46.0483 212.303 46.2472C212.715 46.4413 213.053 46.6922 213.319 47C213.584 47.3078 213.785 47.6274 213.922 47.9588H214.022V46.0909H217.48V57.0426C217.48 57.9659 217.248 58.7448 216.784 59.3793C216.32 60.0137 215.672 60.4943 214.838 60.821C214.005 61.1525 213.042 61.3182 211.948 61.3182ZM212.054 54.3224C212.476 54.3224 212.836 54.2112 213.134 53.9886C213.432 53.7661 213.662 53.4465 213.823 53.0298C213.984 52.6132 214.064 52.1136 214.064 51.5312C214.064 50.9394 213.984 50.4304 213.823 50.0043C213.667 49.5734 213.437 49.242 213.134 49.0099C212.836 48.7779 212.476 48.6619 212.054 48.6619C211.623 48.6619 211.259 48.7803 210.961 49.017C210.662 49.2538 210.435 49.5876 210.279 50.0185C210.127 50.4446 210.051 50.9489 210.051 51.5312C210.051 52.1136 210.13 52.6132 210.286 53.0298C210.442 53.4465 210.667 53.7661 210.961 53.9886C211.259 54.2112 211.623 54.3224 212.054 54.3224ZM224.794 57.206C223.653 57.206 222.668 56.9811 221.839 56.5312C221.016 56.0767 220.381 55.4304 219.936 54.5923C219.496 53.7495 219.276 52.7481 219.276 51.5881C219.276 50.4612 219.498 49.4763 219.943 48.6335C220.388 47.786 221.016 47.1278 221.825 46.6591C222.635 46.1856 223.589 45.9489 224.688 45.9489C225.464 45.9489 226.174 46.0696 226.818 46.3111C227.462 46.5526 228.018 46.91 228.487 47.3835C228.956 47.857 229.321 48.4418 229.581 49.1378C229.841 49.8291 229.972 50.6222 229.972 51.517V52.3835H220.49V50.3665H226.74C226.735 49.9972 226.648 49.6681 226.477 49.3793C226.307 49.0904 226.072 48.8655 225.774 48.7045C225.481 48.5388 225.142 48.456 224.759 48.456C224.37 48.456 224.022 48.5436 223.714 48.7188C223.407 48.8892 223.163 49.1236 222.983 49.4219C222.803 49.7154 222.708 50.0492 222.699 50.4233V52.4759C222.699 52.9209 222.786 53.3116 222.962 53.6477C223.137 53.9792 223.385 54.2372 223.707 54.4219C224.029 54.6065 224.413 54.6989 224.858 54.6989C225.166 54.6989 225.445 54.6562 225.696 54.571C225.947 54.4858 226.162 54.3603 226.342 54.1946C226.522 54.0289 226.657 53.8253 226.747 53.5838L229.936 53.6761C229.804 54.3911 229.512 55.0137 229.062 55.544C228.617 56.0696 228.033 56.4792 227.308 56.7727C226.584 57.0616 225.746 57.206 224.794 57.206ZM231.745 57V46.0909H235.119V48.0795H235.233C235.431 47.3598 235.756 46.8248 236.206 46.4744C236.655 46.1193 237.179 45.9418 237.775 45.9418C237.936 45.9418 238.102 45.9536 238.272 45.9773C238.443 45.9962 238.601 46.027 238.748 46.0696V49.0881C238.583 49.0312 238.365 48.9863 238.095 48.9531C237.83 48.92 237.593 48.9034 237.385 48.9034C236.973 48.9034 236.601 48.9957 236.27 49.1804C235.943 49.3603 235.685 49.6136 235.495 49.9403C235.311 50.2623 235.218 50.6411 235.218 51.0767V57H231.745ZM246.989 49.777V52.4545H240.256V49.777H246.989ZM249.469 57V55.0185L254.526 48.8608V48.7898H249.647V46.0909H258.667V48.2642L253.979 54.2301V54.3011H258.837V57H249.469ZM261.11 57V55.0185L266.167 48.8608V48.7898H261.287V46.0909H270.307V48.2642L265.62 54.2301V54.3011H270.478V57H261.11Z" fill="white"/>
<path d="M0 0H100V100H0V0Z" fill="#2CB1BC"/>
<path d="M9.36364 73V66.5909L31.9773 35.5909H9.38636V26.4545H46.2045V32.8636L23.5909 63.8636H46.1818V73H9.36364ZM52.9261 73V66.5909L75.5398 35.5909H52.9489V26.4545H89.767V32.8636L67.1534 63.8636H89.7443V73H52.9261Z" fill="white"/>
</svg>
